<svg width="360" height="788" viewBox="0 0 360 788" fill="none" xmlns="http://www.w3.org/2000/svg">
<path fill-rule="evenodd" clip-rule="evenodd" d="M172.515 138.47C152.416 100.361 150.288 48.0824 175.381 -17.5L203.978 -6.55822C180.954 53.617 184.841 96.2037 199.598 124.186C214.385 152.222 241.601 168.525 271.358 173.242C301.362 177.999 332.148 170.667 352.779 153.629C372.598 137.26 384.61 110.716 375.956 72.2539C366.971 32.319 331.236 12.9294 297.106 15.3763C280.196 16.5887 264.759 23.1873 254.008 34.4134C243.483 45.4032 236.359 61.9474 237.77 85.473C238.781 102.317 252.039 113.849 271.876 117.183C292.35 120.624 311.493 113.716 318.989 102.131C322.433 96.8082 323.669 93.1888 324.02 91.0748C324.187 90.0703 324.143 89.4854 324.103 89.2223C324.066 88.9798 324.014 88.8761 323.979 88.8138C323.751 88.4047 321.415 85.6644 312.569 84.2582C304.515 82.9777 294.287 83.4161 284.456 85.4558C274.405 87.541 266.603 90.9141 262.507 94.1004C255.832 99.2915 246.214 98.0892 241.023 91.415C235.832 84.7408 237.034 75.1221 243.708 69.9311C252.944 62.7478 265.817 58.0513 278.236 55.4749C290.875 52.8528 304.914 52.0374 317.377 54.0187C329.048 55.8742 343.479 60.9112 350.723 73.9026C358.576 87.9883 354.216 104.052 344.696 118.765C328.134 144.36 294.193 151.983 266.801 147.379C238.773 142.668 209.383 123.582 207.206 87.3069C205.337 56.1553 214.883 30.9978 231.894 13.2351C248.679 -4.29138 271.644 -13.4961 294.916 -15.1645C341.149 -18.4791 392.897 8.06017 405.828 65.5326C416.858 114.554 401.531 153.076 372.277 177.237C343.835 200.727 303.814 209.389 266.564 203.484C229.068 197.539 192.585 176.525 172.515 138.47ZM91.8438 96.6527C107.897 84.6677 118.127 50.0446 107.897 32.733C78.5815 -16.8752 19.6035 30.0697 34.3191 75.3461C41.4278 97.2179 75.7903 108.638 91.8438 96.6527ZM13.8344 412.412L9.45755 378.816C8.59265 372.177 1.58517 368.409 -3.62604 372.612C-25.5404 390.287 -42.3339 426.672 -51.8927 448.238C-54.1521 453.336 -51.8179 459.319 -46.7046 461.542L-23.6156 471.582L32.9823 489.613C38.0596 491.23 43.5144 488.58 45.0518 483.478C47.9005 474.024 50.9998 461 50.9998 450.665V421.803C50.9998 412.593 39.6039 408.28 33.5058 415.182L31.2445 417.741C25.5597 424.176 14.9435 420.926 13.8344 412.412ZM327.897 268.733C338.127 286.045 327.897 320.668 311.844 332.653C295.791 344.638 261.428 333.218 254.319 311.346C239.604 266.07 298.582 219.125 327.897 268.733ZM260.844 778.653C276.897 766.668 287.127 732.045 276.897 714.733C247.582 665.125 188.604 712.07 203.319 757.346C210.428 779.218 244.791 790.638 260.844 778.653ZM87.0975 513.696C96.7252 516.594 104.698 532.789 102.858 542.635C101.018 552.482 84.5151 559.929 74.4895 554.297C53.7357 542.639 59.5083 505.394 87.0975 513.696ZM73.8795 292.653C75.4309 284.351 68.7089 270.696 60.5915 268.254C37.3304 261.254 32.4634 292.656 49.9614 302.485C58.4142 307.233 72.3281 300.955 73.8795 292.653ZM123.967 88.4699C129.17 90.0356 133.479 98.788 132.485 104.109C131.49 109.43 122.572 113.455 117.154 110.412C105.938 104.111 109.058 83.983 123.967 88.4699ZM52.4846 356.109C53.4791 350.788 49.1704 342.036 43.9674 340.47C29.0576 335.983 25.9379 356.111 37.1537 362.412C42.5718 365.455 51.4902 361.43 52.4846 356.109ZM187.968 673.47C193.171 675.036 197.479 683.788 196.485 689.109C195.491 694.43 186.572 698.455 181.154 695.412C169.938 689.111 173.058 668.983 187.968 673.47ZM343.485 407.109C344.479 401.788 340.171 393.036 334.968 391.47C320.058 386.983 316.938 407.111 328.154 413.412C333.572 416.455 342.491 412.43 343.485 407.109ZM219.968 219.47C225.171 221.036 229.479 229.788 228.485 235.109C227.491 240.43 218.572 244.455 213.154 241.412C201.938 235.111 205.058 214.983 219.968 219.47ZM25.4846 32.1092C26.4791 26.788 22.1704 18.0356 16.9674 16.4698C2.05756 11.983 -1.06209 32.1114 10.1537 38.4115C15.5718 41.455 24.4902 37.4304 25.4846 32.1092ZM251.968 640.47C257.171 642.036 261.479 650.788 260.485 656.109C259.491 661.43 250.572 665.455 245.154 662.412C233.938 656.111 237.058 635.983 251.968 640.47ZM170.485 776.109C171.479 770.788 167.171 762.036 161.968 760.47C147.058 755.983 143.938 776.111 155.154 782.412C160.572 785.455 169.491 781.43 170.485 776.109ZM325.592 658.254C333.709 660.696 340.431 674.351 338.88 682.653C337.328 690.955 323.414 697.233 314.962 692.485C297.464 682.656 302.331 651.254 325.592 658.254ZM163.733 242.201C171.955 240.228 177.021 231.964 175.048 223.742C173.075 215.52 164.811 210.454 156.589 212.427L103.388 225.192L99.8726 179.952C99.5538 175.85 97.5972 172.048 94.4438 169.405C91.2905 166.762 87.2059 165.499 83.111 165.902L24.224 171.692L13.0371 110.521C12.2462 106.196 9.63419 102.42 5.86636 100.155C2.09853 97.8893 -2.46143 97.3529 -6.6521 98.6823C-16.1905 101.708 -30.7874 106.53 -43.6172 111.178C-46.7374 112.309 -49.7976 113.445 -52.6848 114.556C-52.8794 111.782 -53.0621 108.765 -53.232 105.556C-54.1926 87.4104 -54.6605 64.7913 -54.7936 49.4748C-54.8418 43.9286 -57.886 38.8422 -62.751 36.1789C-67.6161 33.5155 -73.5412 33.6917 -78.2394 36.6395L-148.649 80.817L-132.376 106.754L-84.9387 76.9901C-84.6787 87.1366 -84.3096 97.7072 -83.8084 107.175C-83.3162 116.472 -82.6757 125.139 -81.8202 131.358C-81.429 134.202 -80.8513 137.68 -79.8317 140.568L-79.8049 140.644C-79.474 141.589 -78.1173 145.463 -74.5491 148.473C-72.1888 150.464 -68.0798 152.685 -62.7428 152.14C-58.77 151.734 -55.8968 149.964 -54.1109 148.461C-53.9966 148.398 -53.8544 148.321 -53.6816 148.23C-52.6733 147.703 -51.1398 146.987 -49.049 146.095C-44.8997 144.324 -39.371 142.207 -33.1868 139.966C-26.952 137.707 -20.2412 135.391 -13.9291 133.273L-3.36078 191.061C-1.9281 198.895 5.27139 204.322 13.1971 203.543L70.5559 197.903L74.2506 245.451C74.5978 249.919 76.8848 254.01 80.5085 256.646C84.1323 259.282 88.7289 260.198 93.0863 259.152L163.733 242.201ZM-54.4798 148.677C-54.4854 148.681 -54.4891 148.684 -54.4909 148.685C-54.492 148.686 -54.4924 148.686 -54.4922 148.686C-54.4905 148.686 -54.4586 148.667 -54.4013 148.628C-54.44 148.652 -54.4659 148.668 -54.4798 148.677ZM448.678 404.428C456.974 406.061 462.375 414.111 460.742 422.407L446.71 493.691C445.845 498.087 443.097 501.884 439.19 504.08C435.284 506.275 430.612 506.649 426.406 505.103L381.644 488.647L362.867 543.138C360.272 550.667 352.339 554.95 344.62 552.988L287.685 538.512C286.981 545.133 286.289 552.198 285.744 558.807C285.204 565.363 284.825 571.271 284.705 575.781C284.645 578.053 284.657 579.745 284.716 580.882C284.726 581.076 284.737 581.238 284.747 581.368C285.368 583.618 285.781 586.968 284.494 590.748C282.765 595.826 279.034 598.636 276.24 599.952C272.017 601.941 267.93 601.56 266.933 601.467L266.853 601.46C263.803 601.183 260.401 600.259 257.652 599.429C251.642 597.615 243.497 594.586 234.84 591.159C226.025 587.669 216.262 583.599 206.931 579.607L212.226 619.953C213.326 628.336 207.422 636.024 199.038 637.125C190.655 638.225 182.967 632.321 181.867 623.937L173.043 556.702C172.321 551.203 174.63 545.743 179.078 542.43C183.527 539.118 189.419 538.47 194.481 540.738C208.46 547 229.216 556 246.111 562.689C249.099 563.872 251.917 564.963 254.52 565.942C254.713 562.855 254.956 559.599 255.228 556.292C256.349 542.692 258.05 527.414 259.274 517.482C259.812 513.119 262.2 509.197 265.829 506.716C269.459 504.235 273.98 503.434 278.241 504.518L338.509 519.84L357.786 463.898C359.126 460.008 361.976 456.821 365.693 455.056C369.41 453.291 373.681 453.096 377.543 454.516L420.133 470.174L430.699 416.493C432.332 408.197 440.382 402.795 448.678 404.428ZM284.787 581.771C284.784 581.754 284.781 581.731 284.778 581.702C284.78 581.716 284.782 581.729 284.784 581.741C284.786 581.752 284.787 581.762 284.788 581.771C284.791 581.795 284.793 581.809 284.793 581.809C284.793 581.809 284.79 581.797 284.787 581.771ZM129.123 754.538C139.812 693.454 129.695 647.026 106.128 614.859C80.7009 580.154 41.534 564.709 3.57159 564.32C-34.1414 563.933 -72.4624 578.363 -97.1578 605.765C-122.558 633.95 -132.078 674.301 -113.988 721.179C-92.7793 776.138 -37.7021 794.812 7.54643 784.763C30.323 779.704 51.6923 767.235 65.7296 747.44C79.956 727.377 85.7149 701.093 79.3038 670.551C71.8383 634.986 39.9699 620.409 11.5533 619.854C-16.2175 619.312 -48.6762 631.823 -61.3108 659.568C-68.5737 675.517 -70.5341 692.045 -60.7022 704.829C-51.634 716.619 -36.6213 719.489 -24.8039 719.615C-12.1858 719.75 1.58266 716.887 13.7014 712.442C25.6093 708.075 37.6558 701.544 45.7399 693.085C51.5819 686.973 51.3626 677.282 45.2501 671.44C39.1376 665.598 29.4465 665.817 23.6046 671.93C20.0187 675.681 12.7955 680.161 3.15796 683.695C-6.26872 687.153 -16.3215 689.084 -24.4769 688.997C-33.4328 688.902 -36.1456 686.533 -36.4312 686.162C-36.4746 686.105 -36.5409 686.01 -36.613 685.776C-36.6911 685.521 -36.8208 684.949 -36.8027 683.931C-36.7645 681.789 -36.0724 678.027 -33.4449 672.258C-27.7261 659.699 -9.80161 650.062 10.9555 650.468C31.0668 650.861 45.871 660.327 49.3376 676.841C54.1793 699.907 49.5546 717.316 40.7526 729.728C31.7615 742.408 17.4576 751.196 0.907715 754.872C-32.4966 762.291 -70.685 748.344 -85.422 710.155C-99.6155 673.375 -91.6206 645.358 -74.4124 626.264C-56.4994 606.387 -27.1187 594.626 3.25781 594.937C33.385 595.246 62.6955 607.387 81.4285 632.956C98.593 656.383 108.496 693.329 99.2003 747.894C97.7804 756.229 102.935 764.417 111.189 766.249C119.444 768.082 127.665 762.867 129.123 754.538Z" fill="#FFA548"/>
</svg>
